# xmcd
#
# Track frame offsets:
#	151
#	13805
#	82731
#	97171
#	121318
#	147067
#	162997
#	193658
#	202525
#	213572
#	220639
#	294007
#
# Disc length: 4104 seconds
#
# Revision: 0
# Processed by: cddbd v1.4PL0 Copyright (c) Steve Scherf et al.
# Submitted via: EasyCDDAExtractor 4.5.0.1
#
DISCID=9e10060c
DTITLE=Tribute to Banjo Paterson - Wallis and Matilda
DYEAR=2002
DGENRE=Country
TTITLE0=Pioneers (Version 1)
TTITLE1=The Man From Snowy River
TTITLE2=A Bush Christening
TTITLE3=Johnson's Antidote
TTITLE4=Lost
TTITLE5=Any Other Time
TTITLE6=How Gilbert Died
TTITLE7=Riders In The Stand
TTITLE8=Last Week
TTITLE9=A Singer Of The Bush
TTITLE10=Old Pardon, The Son of Reprieve
TTITLE11=Pioneers (Version 2)
EXTD=
EXTT0=
EXTT1=
EXTT2=
EXTT3=
EXTT4=
EXTT5=
EXTT6=
EXTT7=
EXTT8=
EXTT9=
EXTT10=
EXTT11=
PLAYORDER=
